<svg xmlns="http://www.w3.org/2000/svg" width="1024" height="1024"><path fill="#3d484d" d="M531 424c5.517 2.223 7.488 6.86 10 12 7.874 20.477 10.023 50.931 3 72l3.447-.487c4.479-.558 8.899-.691 13.408-.716l2.496-.017q2.6-.014 5.201-.02c2.611-.01 5.222-.041 7.833-.072C594.445 506.573 611.1 509.69 625 522l1.828 1.441C638.22 533.268 642.688 550.668 644 565c.158 3.147.19 6.287.188 9.438l.001 2.684c-.086 11.33-1.134 22.603-2.189 33.878l2.644-.208c68.607-5.025 68.607-5.025 94.446 16.575 10.043 9.087 16.29 20.655 19.91 33.633l.55 1.936c2.16 8.99 1.752 18.193 1.7 27.376l-.005 2.692c-.031 13.086-.463 26.015-2.245 38.996l2-1c31.405-3.107 67.094-5.073 93.188 15.563 4.011 3.552 7.718 7.053 10.812 11.437-.088 3.066-1.065 4.07-3.18 6.324l-2.695 2.364-2.68 2.386C854 771 854 771 851 772v2c-2.884-1.293-4.872-2.66-7-5-3.487 1.484-5.642 3.462-8.25 6.188-2.715 2.776-5.425 5.474-8.375 8-6.66 5.709-12.982 11.807-19.375 17.812-3.367-1.52-4.608-2.521-6-6 5.045-5.138 10.1-10.183 15.574-14.863 5.94-5.232 11.657-10.718 17.426-16.137-1-3-1-3-3.477-4.387C819.78 754.761 819.78 754.761 815 756c-3.061 2.2-5.702 4.754-8.374 7.406-2.632 2.58-5.34 5.08-8.036 7.592-3.207 2.99-6.399 5.996-9.59 9.002-3.367-1.52-4.608-2.521-6-6 4.855-4.956 9.729-9.776 15.078-14.2 2.572-2.409 4.702-5.063 6.922-7.8-24.032-1.08-24.032-1.08-30.117 3.492-3.022 2.867-5.419 6.161-7.883 9.508a87 87 0 0 1-4.437 3.938A201 201 0 0 0 759 772l-2.672 1.922c-3.608 4.77-3.11 9.563-3.14 15.39l-.077 3.4A538 538 0 0 0 753 801c5.42-4.224 10.618-8.444 15.395-13.39 2.389-2.396 4.97-4.49 7.605-6.61 3.479 1.392 4.48 2.633 6 6l-3.863 3.555a589 589 0 0 0-3.428 3.193c-3.247 3.038-6.54 5.963-9.982 8.78-10.365 8.67-10.365 8.67-11.332 13.488.506 2.945 1.361 5.272 2.605 7.984a388 388 0 0 1 1.625 5.188q.673 1.91 1.375 3.812c2.836-1.297 4.96-2.688 7.215-4.836l1.811-1.71 1.912-1.829 4.015-3.797 2.041-1.935c3.565-3.364 7.18-6.672 10.793-9.984 2.21-2.034 4.372-4.075 6.451-6.245C795 801 795 801 797 801c4 4.47 4 4.47 4 7-1.223 1.234-1.223 1.234-3.062 2.75-4.858 4.126-9.493 8.465-14.134 12.83-3.103 2.915-6.219 5.808-9.406 8.63l-1.678 1.498a957 957 0 0 1-4.525 3.987c-2.11 2.215-3.104 3.26-3.195 6.305l2 2c-.5 4.838-3.917 7.205-7.312 10.313-.583.562-1.165 1.125-1.764 1.705-1.725 1.595-1.725 1.595-4.924 3.982-2.675-.32-3.734-.75-5.71-2.61-4.924-6.333-8.25-12.982-11.29-20.39l-.934-2.27c-.82-2.223-1.463-4.437-2.066-6.73l-.844-3.09c-4.853-21.052-4.863-48.979.844-69.91l-3.355.219c-68.158 4.114-68.158 4.114-93.061-16.767-15.182-13.918-20.692-34.007-21.776-53.995a379 379 0 0 1-.058-10.77l.012-3.883c.11-12.322 1-24.548 2.238-36.804l-3.434.048c-4.277.055-8.554.089-12.832.117q-2.756.022-5.513.061c-22.467.313-43.868-2.842-60.928-18.765-3.525-3.783-5.923-7.893-8.293-12.461l-1.145-1.918c-5.93-10.417-6.359-22.956-6.23-34.644l.018-3.915c.147-11.024 1.35-21.695 3.357-32.523l-2.664.219c-56.63 4.02-56.63 4.02-77.734-12.817L439 516v-2h-2c-3-3.462-3-3.462-3-6a103 103 0 0 1 5.25-4.5l2.953-2.406c2.246-1.681 4.244-2.975 6.797-4.094l1.355 1.566 1.832 1.997 1.793 2.003C456 504 456 504 458.508 503.902c2.673-.968 4.115-1.967 6.18-3.902l2.078-1.91L469 496q2.465-2.222 4.938-4.437l2.519-2.274A2032 2032 0 0 1 488 479c1.938.813 1.938.813 4 2l1 3c-5.11 5.191-10.444 10.14-15.762 15.117-3.807 3.571-7.576 7.163-11.238 10.883 1.755.286 3.516.545 5.285.719 2.715.281 2.715.281 6.024.875 5.318.585 9.385.944 13.904-2.07 4.457-3.71 8.458-7.836 12.33-12.147C505 496 505 496 507 496c1.625 2 1.625 2 3 4-1.448 3.444-3.277 5.361-6.125 7.75l-2.195 1.86L500 511c8.044.141 15.98-.422 24-1l2-22-10 8-4-2c0-4 0-4 1.285-5.71.587-.55 1.173-1.1 1.778-1.665l1.722-1.648C519 483 519 483 520.793 481.837c3.065-2.153 4.94-3.628 5.77-7.38.126-2.973.049-5.862-.125-8.832l-.096-3.098A302 302 0 0 0 526 455c-4.338 3.785-8.667 7.576-12.937 11.438A2141 2141 0 0 1 499 479a105 105 0 0 1-5-4c0-2 0-2 1.223-3.234l1.84-1.516c5.019-4.255 9.788-8.756 14.568-13.274 3.35-3.15 6.722-6.166 10.369-8.976-.399-3.43-.802-5.692-2.687-8.625L518 437c1.242-3.895 3.898-5.76 7.063-8.187l2.722-2.106L530 425z"/><path fill="#62a5a2" d="M641 606h1v5l2.644-.208c68.607-5.025 68.607-5.025 94.446 16.575 10.043 9.087 16.29 20.655 19.91 33.633l.55 1.936c2.16 8.99 1.752 18.193 1.7 27.376l-.005 2.692c-.031 13.086-.463 26.015-2.245 38.996l2-1c31.405-3.107 67.094-5.073 93.188 15.563 4.011 3.552 7.718 7.053 10.812 11.437-.088 3.066-1.065 4.07-3.18 6.324l-2.695 2.364-2.68 2.386C854 771 854 771 851 772v2c-2.884-1.293-4.872-2.66-7-5-3.487 1.484-5.642 3.462-8.25 6.188-2.715 2.776-5.425 5.474-8.375 8-6.66 5.709-12.982 11.807-19.375 17.812-3.367-1.52-4.608-2.521-6-6 5.045-5.138 10.1-10.183 15.574-14.863 5.94-5.232 11.657-10.718 17.426-16.137-1-3-1-3-3.477-4.387C819.78 754.761 819.78 754.761 815 756c-3.061 2.2-5.702 4.754-8.374 7.406-2.632 2.58-5.34 5.08-8.036 7.592-3.207 2.99-6.399 5.996-9.59 9.002-3.367-1.52-4.608-2.521-6-6 4.855-4.956 9.729-9.776 15.078-14.2 2.572-2.409 4.702-5.063 6.922-7.8-24.032-1.08-24.032-1.08-30.117 3.492-3.022 2.867-5.419 6.161-7.883 9.508a87 87 0 0 1-4.437 3.938A201 201 0 0 0 759 772l-2.672 1.922c-3.608 4.77-3.11 9.563-3.14 15.39l-.077 3.4A538 538 0 0 0 753 801c5.42-4.224 10.618-8.444 15.395-13.39 2.389-2.396 4.97-4.49 7.605-6.61 3.479 1.392 4.48 2.633 6 6l-3.863 3.555a589 589 0 0 0-3.428 3.193c-3.247 3.038-6.54 5.963-9.982 8.78-10.365 8.67-10.365 8.67-11.332 13.488.506 2.945 1.361 5.272 2.605 7.984a388 388 0 0 1 1.625 5.188q.673 1.91 1.375 3.812c2.836-1.297 4.96-2.688 7.215-4.836l1.811-1.71 1.912-1.829 4.015-3.797 2.041-1.935c3.565-3.364 7.18-6.672 10.793-9.984 2.21-2.034 4.372-4.075 6.451-6.245C795 801 795 801 797 801c4 4.47 4 4.47 4 7-1.223 1.234-1.223 1.234-3.062 2.75-4.858 4.126-9.493 8.465-14.134 12.83-3.103 2.915-6.219 5.808-9.406 8.63l-1.678 1.498a957 957 0 0 1-4.525 3.987c-2.11 2.215-3.104 3.26-3.195 6.305l2 2c-.5 4.838-3.917 7.205-7.312 10.313-.292.28-.292.28-1.764 1.705-1.725 1.595-1.725 1.595-4.924 3.982-2.675-.32-3.734-.75-5.71-2.61-4.924-6.333-8.25-12.982-11.29-20.39l-.934-2.27c-.82-2.223-1.463-4.437-2.066-6.73l-.844-3.09c-4.853-21.052-4.863-48.979.844-69.91h-7v-1l7-1c1.204-5.268 1.403-10.538 1.719-15.918C735 736 735 736 736 734l-1.98.496c-3.79.632-7.505.611-11.332.567l-2.245-.014q-2.722-.02-5.443-.049l2.16-2.156q2.771-2.772 5.524-5.563l2.754-2.781 1.452-1.48c2.446-2.465 4.86-4.64 7.735-6.582 3.672-3.769 3.355-7.345 3.375-12.438l.043-3.984A585 585 0 0 0 738 689l-2.562 2.379c-6.073 5.627-12.154 11.23-18.438 16.621l-6-5 3.453-3.45q1.586-1.59 3.156-3.195c3.06-3.107 6.176-6.103 9.453-8.98l2.004-1.766C731 684 731 684 732.84 682.766c2.25-1.547 3.93-2.925 4.668-5.618.381-6.992-2.252-13.632-4.508-20.148-3.007 1.34-4.998 2.798-7.25 5.188A115 115 0 0 1 718 669.5a123 123 0 0 0-7.5 7 197 197 0 0 1-7.75 7.438l-1.953 1.777C699 687 699 687 696 687c-2.187-2.5-2.187-2.5-4-5 4.702-4.8 9.446-9.461 14.547-13.836 3.505-3.092 6.914-6.285 10.328-9.476l2.022-1.89c4.794-4.49 4.794-4.49 7.103-6.798-.113-1.93-.113-1.93-1-4-1.855-1.633-1.855-1.633-4.187-3.125l-2.293-1.508c-2.766-1.5-5.514-2.453-8.52-3.367l-2.125 2.16c-4.762 4.817-9.528 9.547-14.691 13.938a203 203 0 0 0-5.274 4.773l-1.643 1.531a607 607 0 0 0-3.232 3.043C679.221 667 679.221 667 677 667a125 125 0 0 1-4-6q3.935-3.722 7.875-7.437l2.344-2.212c4.96-4.669 9.967-9.264 15.093-13.75C700 636 700 636 701 634c-3.137-.28-6.272-.53-9.414-.742-2.187-.157-4.372-.36-6.547-.64-4.413-.393-6.998-.326-10.734 2.214-2.552 2.296-4.931 4.69-7.305 7.168a127 127 0 0 1-3.625 3.063L661 647c-3.479-1.392-4.48-2.633-6-6l1.496-1.242 1.942-1.633 1.933-1.617C662 635 662 635 663 633h-24c.637-9.003 1.298-18.002 2-27"/><path fill="#c0a482" d="M336 412c3.464.577 5.037 1.693 7.418 4.238l1.861 1.987 1.909 2.087c.64.678 1.282 1.355 1.943 2.053 5.51 5.953 5.51 5.953 5.869 9.635-.665 2.34-.665 2.34-1.738 4.938-2.41 6.245-3.976 12.54-5.45 19.062l-.787 3.328c-5.085 22.18-4.045 44.606.975 66.672.15.7.3 1.398.453 2.119 7.923 36.726 33.61 70.246 64.693 90.596C424.582 626.03 435.994 631.901 449 636l2.008.644a562 562 0 0 0 6.367 1.981l1.886.589c12.725 3.755 25.358 5.369 38.614 5.286l2.129-.001c16.323-.055 32.739-2.099 48.04-8.035 2.348-.557 3.685-.207 5.956.536l2.445.684 2.68.754c11.021 2.972 21.502 4.06 32.875 4.562-3.672 4.437-8.392 6.428-13.5 8.813l-2.833 1.324c-9.366 4.298-18.775 7.969-28.667 10.863l-2.567.778c-15.077 4.365-30.103 4.718-45.683 4.784-.968.01-1.936.018-2.934.027-18.216.113-35.687-2.23-52.941-8.277l-3.018-1.037C395.838 644.73 357.613 612.116 337 570c-2.882-6.243-5.516-12.589-8-19l-1.024-2.615c-2.487-6.555-4.231-13.09-5.663-19.947l-.643-2.92C313.438 487.004 319.912 447.484 336 412"/><path fill="#c1a482" d="M609 348c3.817 3.173 7.403 6.582 11 10a547 547 0 0 0 4.25 3.625C654.822 388.267 675.027 432.95 678 473c.192 5.271.244 10.538.25 15.813l.004 2.229c-.004 10.879-.58 21.366-2.861 32.029-.37 1.817-.643 3.653-.909 5.488C671.368 548.525 661.87 567.572 652 585h-1l-.044-1.965c-.319-12.71-1.062-24.632-3.956-37.035-1.875-8.897.557-16.19 3.125-24.75 1.718-6.38 2.032-12.764 2.043-19.344l.01-2.272q.007-2.37.007-4.74c.002-2.36.02-4.72.04-7.082.05-13.215-.729-26.32-4.538-39.062l-.662-2.285A131 131 0 0 0 640 428l-.839-1.818C631.643 410.003 622 396.17 610 383l-2.164-2.418C596.006 368.044 581.328 358.65 566 351l-2.042-1.023c-9.886-4.855-19.992-7.995-30.712-10.457-2.026-.47-4.043-.978-6.058-1.493-18.565-4.228-38.202-2.705-56.836.317-6.76 1.047-6.76 1.047-9.352.656-2.062-1.574-2.062-1.574-4-3.687l-2.082-2.22L453 331l-2.687-2.687L448 326l-2.812-2.625C443 321 443 321 443 318q2.123-.507 4.25-1l2.39-.562C452 316 452 316 456 316l2.832 5.273C460 323 460 323 463 325c3.873.516 5.777.11 9.313-1.625C475 321 475 321 475.875 318c.097-2.332.125-4.666.125-7 46.435-7.069 96.363 8.25 133 37"/><path fill="#fafbfa" d="M701 634c-1.407 3.225-3.063 5.256-5.633 7.645l-2.195 2.052-2.297 2.115-2.227 2.08A539 539 0 0 1 674 661l1.5 1.875C677 665 677 665 677 667c6.31-4.989 12.258-10.104 17.871-15.867 2.66-2.665 5.476-5.108 8.332-7.559 2.383-2.087 4.592-4.3 6.797-6.574 6.452 1.654 12.298 5.298 17 10-.14 4.26-3.167 6.497-6.062 9.313l-1.52 1.484a214 214 0 0 1-10.094 9.168C703.76 671.837 698.405 676.952 693 682l5 5 1.25-1.285c3.151-3.2 6.346-6.283 9.75-9.215 3.224-2.778 6.223-5.7 9.203-8.734 2.563-2.518 5.272-4.852 8-7.188A86 86 0 0 0 731 656l3 1c1.86 4.18 2.919 8.563 4 13l.676 2.477c.4 2.65.328 4.017-.676 6.523-3.155 3.62-6.648 6.633-10.366 9.657-2.45 2.014-4.787 4.148-7.134 6.28l-2.344 2.09c-2.114 1.935-4.146 3.93-6.156 5.973l5 4 1.266-1.206q2.893-2.746 5.797-5.481l1.99-1.897c4.107-3.865 8.283-7.244 12.947-10.416q.04 3.688.063 7.375l.025 2.059c.01 2.19-.037 4.376-.088 6.566l.039 2.5c-.137 4.994-.834 7.87-4.355 11.512a156 156 0 0 1-4.246 3.676l-2.096 1.853a198 198 0 0 1-4.25 3.638C722 729 722 729 720.161 730.999c-4.006 4.19-6.788 5.454-12.63 5.685a232 232 0 0 1-7.032-.246l-3.648-.096A415 415 0 0 1 688 736c1.11-3.329 1.925-4.015 4.563-6.187 3.83-3.231 7.318-6.682 10.773-10.31C705 718 705 718 707 718c1.125-2.312 1.125-2.312 2-5l-2-3c-3.548.585-5.267 1.87-7.828 4.352-.36.343-.36.343-2.176 2.082l-2.246 2.191c-8.724 8.414-8.724 8.414-13.086 12.355l-1.892 1.716C678 734 678 734 674.625 734.687c-6.711-1.272-12.934-3.893-18.625-7.687 5.102-6.413 11.067-11.777 17.11-17.272 3.426-3.133 6.812-6.307 10.202-9.478l3.864-3.61L690 694c-1.37-3.161-1.99-3.993-5-6l-1 3c-1.496 1.508-1.496 1.508-3.437 3.125l-2.211 1.879L676 698c-8.492 7.494-16.74 15.254-25 23-4.398-1.888-5.84-4.71-7.875-8.875l-1.008-1.895c-2.277-4.564-2.277-4.564-1.601-7.375 5.083-6.354 11.29-11.785 17.464-17.054 3.193-2.847 6.155-5.916 9.137-8.98C669 675 669 675 671 674l-2-5c-3.685 0-4.086.69-6.66 3.184l-2.142 2.05-2.26 2.203-4.602 4.403-2.251 2.163a466 466 0 0 1-8.023 7.497l-2.277 2.094C639 694 639 694 637 694c-1.907-23.164-1.907-23.164 2.273-28.969 2.589-2.792 5.556-4.93 8.727-7.031a445 445 0 0 0 5-4l-2-4c-4 0-4 0-6.07 1.75l-2.055 2.25a98 98 0 0 1-3.875 4h-2q.21-5.125.438-10.25l.119-2.934.127-2.832.11-2.602C638 637 638 637 639 633h24c-1.38 4.142-3.598 5.322-7 8l2 4c5.057 0 6.663-2.038 10.063-5.375C678.605 629.507 687.12 631.528 701 634"/><path fill="#f6f3e8" d="M590 527c-1.312 2.932-2.68 4.894-5.047 7.059l-1.812 1.67-1.891 1.708-1.844 1.698A278 278 0 0 1 568 549l2 4c3.516 0 3.798-.41 6.223-2.746l1.867-1.777 1.972-1.914 4.063-3.844A511 511 0 0 0 591 536.03c.846-.814 1.691-1.63 2.563-2.468l2.19-2.184C598 530 598 530 601.013 530.102c2.962.89 4.813 1.825 7.238 3.71l2.016 1.52c1.836 1.766 2.743 3.338 3.734 5.668-4.07 4.185-8.251 8.153-12.676 11.96-3.492 3.064-6.89 6.229-10.288 9.396-3.82 3.536-3.82 3.536-6.036 4.644l2 4c3.6 0 3.996-.575 6.563-2.937l2.128-1.938L598 564l2.465-2.187c4.837-4.293 9.417-8.669 13.746-13.477C616 547 616 547 618.12 546.988 620 548 620 548 621.011 550.145l.677 2.668.699 2.644L623 558l.528 1.803c1.034 4.81.657 9.86.66 14.76l.037 3.423c.033 19.184.033 19.184-5.123 24.608a98 98 0 0 1-3.477 2.906l-1.75 1.508A152 152 0 0 1 609 611l-1.845 1.64c-2.768 1.747-4.54 1.705-7.796 1.653l-3.242-.03-3.367-.076-3.414-.04A874 874 0 0 1 581 614l2.18-2.176q2.704-2.706 5.39-5.43l2.555-2.582 2.57-2.605C596 599 596 599 599 597l-1-4c-4.662.461-6.493 2.107-9.625 5.5-13.9 14.25-13.9 14.25-19.234 14.79-6.17-.904-11.196-3.578-16.141-7.29l3.32-3.316a725 725 0 0 0 3.735-3.774c4.807-4.865 9.735-9.48 14.945-13.91l4-3.437 3-2.563-2-5c-2.814 1.289-4.933 2.663-7.172 4.793l-1.752 1.65-1.826 1.745q-1.88 1.77-3.762 3.539l-1.821 1.715A218 218 0 0 1 549 600c-3.308-1.36-4.655-2.523-6.187-5.75l-.981-1.984c-1.057-2.88-1.721-5.18-1.832-8.266 1.809-2.527 1.809-2.527 4.438-4.937l2.796-2.61c6.104-5.414 6.104-5.414 8.871-7.781 3.11-2.745 6.004-5.7 8.895-8.672l-2-4c-3.48 1.513-5.91 3.558-8.687 6.125l-2.637 2.41L549 567a1033 1033 0 0 1-5 4.563l-2.187 2.003C540 575 540 575 538 575a479 479 0 0 1-.027-10.39c.015-1.99.007-3.982-.102-5.97.01-4.965 2.412-7.353 5.692-10.702A293 293 0 0 1 549 543l2.055-1.84a161 161 0 0 1 3.851-3.289C557 536 557 536 559.344 533.348c8.936-9.596 18.411-9.157 30.656-6.348"/><path fill="#64a9a3" d="M567 527c-2.681 3.297-5.225 6.401-8.5 9.125-3.901 3.325-7.677 6.768-11.437 10.25L545.305 548c-5.421 5.02-5.421 5.02-5.84 9.91l-.264 2.998-.264 3.154-.275 3.167q-.337 3.885-.662 7.771c5.77-4.446 11.164-9.006 16.238-14.234 2.113-2.118 4.37-3.972 6.762-5.766l4 2c0 4 0 4-2.562 6.988a256 256 0 0 1-3.438 3.324l-1.794 1.748c-3.768 3.645-7.61 7.194-11.62 10.573-3.188 2.748-3.188 2.748-4.586 4.367.122 5.261 2.534 9.481 5 14 4.338 0 4.572-.07 7.5-2.812l2.094-1.926L558 591q2.22-2.038 4.442-4.074 1.555-1.424 3.108-2.852A515 515 0 0 1 578 573c1.938.75 1.938.75 4 2 .75 2.125.75 2.125 1 4-21.187 19.626-21.187 19.626-29 26 4.29 4.147 9.19 5.99 15 7 8.454-.749 16.555-11.364 21.93-17.25 2.406-2.034 3.938-2.585 7.07-2.75l2 2c-.137 2.946-1 4-3.04 6.148l-2.585 2.227c-.838.73-1.676 1.46-2.54 2.21-.935.798-1.87 1.594-2.835 2.415l-3.836 3.29L582 613c21.2 1.737 21.2 1.737 26.8-2.086 2.654-2.503 4.909-5.082 7.2-7.914l2.723-2.156C621 599 621 599 621.813 596.25L622 594h1c.274 7.207-.799 14.02-1.937 21.125-1.44 9.294-2.715 18.466-3.063 27.875h-1v-8l-3.434.048c-4.277.055-8.554.089-12.832.117q-2.756.022-5.513.061c-22.467.313-43.868-2.842-60.928-18.765-3.525-3.783-5.923-7.893-8.293-12.461l-1.145-1.918c-5.93-10.417-6.359-22.956-6.23-34.644l.018-3.915c.147-11.024 1.35-21.695 3.357-32.523h-8v-1l3.578-.184 4.672-.254 2.355-.119 2.286-.127 2.094-.11c2.084-.213 3.992-.675 6.015-1.206 10.627-1.31 21.315-1.102 32-1"/><path fill="#3d4a4e" d="M856.746 748.828c3.066 2.955 5.791 5.683 8.254 9.172-.088 3.066-1.065 4.07-3.18 6.324l-2.695 2.364-2.68 2.386C854 771 854 771 851 772v2c-2.884-1.293-4.872-2.66-7-5-3.487 1.484-5.642 3.462-8.25 6.188-2.715 2.776-5.425 5.474-8.375 8-6.66 5.709-12.982 11.807-19.375 17.812-3.367-1.52-4.608-2.521-6-6 5.045-5.138 10.1-10.183 15.574-14.863 5.94-5.232 11.657-10.718 17.426-16.137-1-3-1-3-3.477-4.387C819.78 754.761 819.78 754.761 815 756c-3.061 2.2-5.702 4.754-8.374 7.406-2.632 2.58-5.34 5.08-8.036 7.592-3.207 2.99-6.399 5.996-9.59 9.002-3.367-1.52-4.608-2.521-6-6 4.855-4.956 9.729-9.776 15.078-14.2 2.537-2.376 4.697-5.13 6.922-7.8l-49 2c1.205-15.665 1.205-15.665 3-22 25.854-12.927 77.285-1.29 97.746 16.828"/><path fill="#64a9a2" d="M531 424c5.517 2.223 7.488 6.86 10 12 7.874 20.477 10.023 50.931 3 72a684 684 0 0 1-5.5 1l-3.094.563C532 510 532 510 524 510l2-22-10 8-4-2c0-4 0-4 1.285-5.71.587-.55 1.173-1.1 1.778-1.665l1.722-1.648C519 483 519 483 520.793 481.837c3.065-2.153 4.94-3.628 5.77-7.38.126-2.973.049-5.862-.125-8.832l-.096-3.098A302 302 0 0 0 526 455c-4.338 3.785-8.667 7.576-12.937 11.438A2141 2141 0 0 1 499 479a105 105 0 0 1-5-4c0-2 0-2 1.223-3.234l1.84-1.516c5.019-4.255 9.788-8.756 14.568-13.274 3.35-3.15 6.722-6.166 10.369-8.976-.399-3.43-.802-5.692-2.687-8.625L518 437c1.242-3.895 3.898-5.76 7.063-8.187l2.722-2.106L530 425z"/><path fill="#60a6a2" d="M408 323c2.41 3.873 4.638 7.55 5.75 12-1.238 4.952-3.914 8.657-7.75 12-3.107.984-4.643.586-8 0l-3.312-.375c-3.783-2.287-4.195-4.883-5.34-9.02-.67-5.022.779-9.179 3.71-13.222 4.217-3.003 10.019-1.837 14.942-1.383"/><path fill="#404c53" d="M797 801c4 4.47 4 4.47 4 7-1.223 1.234-1.223 1.234-3.062 2.75-4.18 3.55-8.19 7.25-12.188 11l-3.91 3.652q-3.68 3.444-7.336 6.914-1.595 1.5-3.192 2.996c-.931.884-1.863 1.767-2.824 2.676-2.313 1.87-3.584 2.652-6.488 3.012-2-3-2-3-1.835-5.465.953-2.895 1.955-4.064 4.194-6.101l2.115-1.955 2.276-2.042 2.313-2.124q2.337-2.143 4.687-4.272c2.647-2.401 5.274-4.824 7.897-7.252q1.617-1.494 3.24-2.983c2.177-1.995 4.3-4.001 6.343-6.134C795 801 795 801 797 801"/><path fill="#66aca6" d="M836 762c3 1.813 3 1.813 6 4 0 3 0 3-2.125 5.453q-1.426 1.41-2.875 2.797l-1.536 1.5a213 213 0 0 1-10.073 9.148C819.458 790.113 813.757 795.593 808 801c-3.367-1.52-4.608-2.521-6-6 5.047-5.14 10.109-10.181 15.578-14.871 3.51-3.086 6.935-6.261 10.36-9.442l2.047-1.89 1.917-1.785 1.734-1.61C835 764 835 764 836 762"/><path fill="#64aaa6" d="M685 688c3.479 1.392 4.48 2.633 6 6a1646 1646 0 0 1-4.5 4.563l-2.531 2.566c-2.826 2.79-5.815 5.373-8.815 7.973-3.804 3.352-7.473 6.849-11.154 10.336l-2.348 2.216q-2.828 2.67-5.652 5.346l-6-5c4.875-6.094 10.487-11.22 16.269-16.43 3.122-2.831 6.207-5.701 9.293-8.57l1.805-1.672 1.7-1.578 1.498-1.39A197 197 0 0 0 685 688"/><path fill="#3e4347" d="M367 403c2.807 1.34 3.86 2.547 6 5 1.194 3.933 1.448 5.963-.187 9.75-3.124 3.877-4.638 5.06-9.688 5.875-3.556-.14-5.188-1.118-7.625-3.687-2.03-2.747-2.524-4.08-3.125-7.563.72-3.884 1.854-5.604 4.625-8.375 3.24-1.62 6.498-1.565 10-1"/><path fill="#66aea8" d="m701 634 9 3c-4.302 5.199-8.856 9.864-13.812 14.438l-2.13 1.976A2145 2145 0 0 1 688 659l-1.583 1.465C679.348 667 679.348 667 677 667a125 125 0 0 1-4-6q3.935-3.722 7.875-7.437l2.344-2.212c4.96-4.669 9.967-9.264 15.093-13.75C700 636 700 636 701 634"/><path fill="#69aca8" d="M614 539c2.252 2.688 3.882 4.646 5 8l-2.105 1.11c-3.56 2.325-6.268 5.09-9.207 8.14C594.757 569.41 594.757 569.41 588 573l-4-4c1.097-3.29 1.848-3.968 4.438-6.125 4.052-3.439 8.013-6.963 11.957-10.527a906 906 0 0 1 5.43-4.852l2.737-2.433 2.504-2.215C613 541 613 541 614 539"/><path fill="#66a8a3" d="m557.938 526.938 2.65.013q3.206.02 6.412.049c-6.115 7.52-13.169 13.314-21 19l-3-5-3 1c-.083-4.833.047-9.237 1-14 5.688-.98 11.173-1.12 16.938-1.062"/><path fill="#3f4c54" d="M776 781c3.367 1.52 4.608 2.521 6 6l-2.352 2.168-1.56 1.44-3.458 3.186a997 997 0 0 0-9.54 8.897l-1.914 1.802a772 772 0 0 0-3.68 3.492C755.224 812 755.224 812 753 812c-.605-4.358-1.09-8.323 1.387-12.135 1.966-2.014 4.006-3.822 6.176-5.615l2.134-1.879A378 378 0 0 1 769 787q2.016-1.724 4.027-3.453z"/><path fill="#6aada6" d="M811.063 752.758c2.347.293 4.64.668 6.937 1.242l-1.762 1.297c-4.886 3.718-9.433 7.829-13.738 12.203-9.754 9.888-9.754 9.888-15.5 12.5l-4-4c3.087-6.879 9.521-11.567 15.164-16.355C800 758 800 758 802.5 755.063c3.077-2.539 4.7-2.554 8.563-2.305"/><path fill="#65aca7" d="M394 377c2.938 1.313 2.938 1.313 5 4 .764 3.813.814 7.193 0 11-2.956 3.026-4.89 3.792-9 4.563-4.28-.803-6.143-2.298-9-5.563-.887-2.879-.839-5.112 0-8 3.176-5.27 6.818-7.124 13-6"/><path fill="#454e52" d="M474 378c2.895 2.46 3.782 4.396 5.063 7.938-.093 4.51-1.91 5.908-5.063 9.062-3.057 1.528-5.63 1.232-9 1-2.677-1.5-3.786-2.373-4.785-5.305-.483-4.478-.713-6.865 1.66-10.82 4.13-2.478 7.421-2.965 12.125-1.875"/><path fill="#5faaa5" d="M706.266 709.074c2.284 1.22 2.816 2.554 3.734 4.926l-2.055 2.05a1639 1639 0 0 0-6.39 6.43l-3.68 3.707-1.879 1.905-1.816 1.826-1.634 1.65c-3.798 3.519-6.202 3.657-11.234 3.557l-3.574-.055L675 735l2.152-1.684c2.907-2.364 5.659-4.836 8.41-7.379l1.555-1.422c2.767-2.536 5.498-5.1 8.192-7.714l1.62-1.549q1.545-1.477 3.061-2.987c3.46-3.283 3.46-3.283 6.276-3.19"/><path fill="#414b51" d="M739 678c1.058 8.31 1.058 8.31-1.277 12.041-1.815 1.883-3.7 3.551-5.723 5.209l-1.965 1.734C725.542 700.9 720.806 704.482 716 708l-5-6c6.598-6.081 13.205-12.138 20-18l2.008-1.758C737.88 678 737.88 678 739 678"/><path fill="#66ada6" d="m590 527 10 2c-4.01 4.063-8.137 7.984-12.312 11.875l-2.005 1.87c-4.486 4.172-9.014 8.287-13.683 12.255l-5-4c1.608-4.282 4.868-6.904 8.188-9.875l1.77-1.61a346 346 0 0 1 9.292-8.14C589 529 589 529 590 527"/><path fill="#444c50" d="m561 555 4 2c0 4 0 4-2.562 6.988a252 252 0 0 1-3.438 3.324l-1.797 1.746C545.293 580.556 545.293 580.556 540 583c-1-1-1-1-1.504-4.121.717-5.517 3.463-7.449 7.567-10.942l1.99-1.775A415 415 0 0 1 554 561l2.058-1.769q2.468-2.118 4.942-4.231"/><path fill="#515655" d="M484.938 402.375c4.217.86 6.176 2.465 9.062 5.625.694 3.7.273 5.442-1.375 8.813C491 419 491 419 489 420c-4.333.49-6.32.477-9.937-2.062C477 415 477 415 476.375 411.5c.945-5.291 3.235-7.992 8.563-9.125"/><path fill="#465155" d="M336 300c3 1 3 1 4.352 3.512l1.273 3.175c.425 1.036.85 2.07 1.29 3.137 1.05 3.072 1.652 5.965 2.085 9.176-7.193-.462-14.003-1.25-21-3 1.565-3.678 3.854-6.212 6.563-9.125 4.34-4.68 4.34-4.68 5.437-6.875"/><path fill="#475257" d="M437 297c-.576 7.35-2.71 14.014-5 21-4.25-1.598-6.822-4.813-9.75-8.125l-1.535-1.707A876 876 0 0 1 417 304c3.413-2.993 6.78-4.004 11.125-5.187l3.758-1.043C435 297 435 297 437 297"/><path fill="#59a09e" d="M762 753h16c-4.436 5.363-9.164 10.191-14.25 14.938l-2.18 2.072-2.086 1.955-1.883 1.77C756 775 756 775 754 775c-.675-3.524-.807-6.488 0-10 2.936-3.812 6.321-6.912 10-10z"/><path fill="#70bbb1" d="M623 562h1v26h-1l-1-11-1.977 1.793C606.522 591 606.522 591 604 591c-1.625-2.5-1.625-2.5-3-5 5.555-5.802 11.275-10.952 17.715-15.762 2.65-2.596 3.394-4.677 4.285-8.238"/><path fill="#444d4f" d="M445 415c3.443 3.046 5.057 5.87 6.75 10.125l1.297 3.195C454 431 454 431 454 433l-19-1c1.62-4.05 3.223-7.135 5.563-10.75l1.878-2.922C444 416 444 416 445 415"/><path fill="#464d51" d="M459 475c2.438 1.063 2.438 1.063 4 3 .57 3.918.595 6.072-1.562 9.438-3.343 2.142-5.543 2.058-9.438 1.562-1.937-1-1.937-1-3-3-.53-3.58-.659-6.76 1.063-10 3.078-1.589 5.539-1.358 8.937-1"/><path fill="#475055" d="M353 377c2 2 2 2 2.375 5.313-.434 4.266-1.193 5.849-4.375 8.687-2.437.625-2.437.625-5 0-2.875-2.062-2.875-2.062-5-5-.066-3.843.181-5.992 2.625-9 3.423-1.441 5.821-.856 9.375 0"/><path fill="#67b0a9" d="M449 444c5.776.763 11.436 2.306 17 4-1.225 4.053-2.699 7.444-5 11-3.952-.582-6.221-2.552-9.25-5.062l-2.703-2.223L447 450c.875-4.875.875-4.875 2-6"/><path fill="#6aacaa" d="M405.563 253c3.437 1 3.437 1 5.437 2.688 1.377 3.184.98 5.021 0 8.312-1.125 1.875-1.125 1.875-3 3-3.41.365-5.88.614-8.937-1.062-1.702-3.103-1.488-5.476-1.063-8.938 2.261-3.618 3.27-4 7.563-4"/><path fill="#67ada5" d="M507 496c1.625 2 1.625 2 3 4-1.448 3.444-3.277 5.361-6.125 7.75l-2.195 1.86L500 511l2 2h-20v-1l2.98-.027c5.459-.78 8.62-4.762 12.332-8.536q2.114-2.101 4.239-4.19l1.864-1.886C505 496 505 496 507 496"/><path fill="#70b2ad" d="M305 363c6.164 1.666 11.483 4.878 17 8v4h-19c.875-9.75.875-9.75 2-12"/><path fill="#549f9c" d="M648 648c3.479 1.392 4.48 2.633 6 6a4073 4073 0 0 1-7.375 6.938l-2.117 1.998-2.031 1.904c-.31.29-.31.29-1.873 1.761C639 668 639 668 637 669c-1.224-9.404-1.224-9.404 1.676-13.184 2.04-1.733 4.136-3.276 6.324-4.816a84 84 0 0 0 3-3"/><path fill="#43494d" d="M676 632c0 2 0 2-1.504 3.516l-2.058 1.734-2.192 1.863L668 641q-2.001 1.717-4 3.438L661 647c-2.622-1.049-3.794-1.65-5.25-4.125L655 641c6.606-7.222 11.059-10.53 21-9"/><path fill="#6baea8" d="M306 357h19c-1 8-1 8-2 11-4.233-.62-7.523-2.105-11.312-4.062l-3.239-1.66L306 361z"/><path fill="#545756" d="M387.438 414.688c3.562.312 3.562.312 5.5 1.375 1.676 3.057 1.427 5.528 1.062 8.937-1.062 1.938-1.062 1.938-3 3-3.5.438-3.5.438-7 0-2-1.562-2-1.562-3-4 .454-8.769.454-8.769 6.438-9.312"/><path fill="#444a4d" d="M527 477c.645 3.633.956 5.508 0 9-3.311 3.818-7.018 6.904-11 10l-4-2c0-4 0-4 1.285-5.71.587-.55 1.173-1.1 1.778-1.665l1.917-1.809C525.671 477 525.671 477 527 477"/><path fill="#61a8a5" d="M325 243c3.743 1.248 4.471 2.67 6.688 5.875l1.886 2.68C335 254 335 254 335 257l-15 1z"/><path fill="#49555a" d="M211 190c2.333 2.139 3.787 4.167 5.188 7l1.042 2.063C218 201 218 201 218 204h-15c1.534-3.836 2.847-6.494 5.125-9.812l1.633-2.395z"/><path fill="#f2f3ef" d="M541 528h14c-1.858 3.717-2.883 5.02-5.937 7.563-3.932 3.299-3.932 3.299-5.692 5.152C542 542 542 542 540 542c-.086-5 .163-8.976 1-14"/><path fill="#69aba6" d="M247 267c2.721 2.721 2.607 4.848 3.125 8.625l.508 3.602L251 282c-5.414-.467-9.205-1.243-14-4 3.208-3.806 6.407-7.546 10-11"/><path fill="#464f53" d="m307 329 4 1q.039 3.344.063 6.688l.035 3.761c-.083 3.013-.39 5.634-1.098 8.551h-5a748 748 0 0 1-.125-7.187l-.05-2.042c-.04-4.06.375-7.121 2.175-10.771"/><path fill="#465258" d="m368 182 4 1c0 4.608-1.1 6.656-3.25 10.688l-1.828 3.511C365 200 365 200 362.766 200.895L361 201c-.746-2.043-.746-2.043-1-5 1.215-2.611 2.428-4.89 3.938-7.312l1.17-1.956c.95-1.585 1.92-3.16 2.892-4.732"/><path fill="#f5f2ed" d="M366 407c1.813 1.125 1.813 1.125 3 3 .438 3 .438 3 0 6-1.687 1.938-1.687 1.938-4 3-3.37-.24-4.588-.588-7-3-.334-3.137-.528-5.166 1.188-7.875 2.467-1.532 3.957-1.553 6.812-1.125"/><path fill="#5d7f82" d="M268 215h2q1.008 2.654 2 5.313l1.125 2.988C274 226 274 226 274 229a1136 1136 0 0 1-4.75-.437l-2.672-.247A44 44 0 0 1 260 227c1.402-2.993 3.034-5.595 5-8.25l1.563-2.14z"/><path fill="#4f5255" d="m418 373 3 2v3h-10c-.125 2.875-.125 2.875 0 6l2 2v3c-2.375-.312-2.375-.312-5-1-2.462-3.693-2.673-6.714-2-11 3.01-5.016 6.676-4.507 12-4"/><path fill="#455158" d="M367 253c2.063.438 2.063.438 4 1-.562 4.522-2.324 7.53-4.812 11.313l-2.083 3.238L362 271h-4c.51-4.789 1.835-7.821 4.5-11.812l1.906-2.895C366 254 366 254 367 253"/><path fill="#42474b" d="M364.996 402.5c3.602.899 5.466 2.835 8.004 5.5v2c-1.812.688-1.812.688-4 1l-3-3c-2.839-.426-4.314-.483-6.687 1.188-1.561 2.155-2.434 4.309-3.313 6.812l-2-1c-.417-4.25-.44-6.353 2-9.937 3.134-2.155 5.18-2.795 8.996-2.563"/><path fill="#4e585d" d="M174 262q3.375.212 6.75.438l3.797.246c2.636.241 4.933.559 7.453 1.316v5q-3.907-.172-7.812-.375c-.738-.03-1.476-.062-2.237-.094-3.77-.204-5.748-.395-8.951-2.531z"/><path fill="#4a565c" d="M337 346c4.349.564 7.178 2.154 10.813 4.563l2.957 1.94L353 354c-.375 1.938-.375 1.938-1 4l-2 1a115 115 0 0 1-7.125-3.937l-1.996-1.17A794 794 0 0 1 336 351z"/><path fill="#6daca9" d="M288 183h2q.506 2.374 1 4.75l.563 2.672C292 193 292 193 292 197q-2.688-.715-5.375-1.437l-3.023-.81C281 194 281 194 279 193c0-2 0-2 1.46-3.508.633-.533 1.264-1.067 1.915-1.617l1.898-1.633C286 185 286 185 288 185z"/><path fill="#505658" d="M496 438c2.063.438 2.063.438 4 1 1.229 6.068 2.276 11.799 2 18h-5q-.506-3.093-1-6.187l-.562-3.481c-.374-2.845-.605-5.47-.438-8.332z"/><path fill="#4c5254" d="M419 410c3.85.77 6.008 1.326 9.313 3.063l2.113 1.097L432 415c-2.824 2.928-5.649 5.68-9 8l-3-1z"/><path fill="#68a5a0" d="M491 440c2.026 3.35 2.217 5.87 2.125 9.75l-.055 2.984L493 455c-4.08-1.557-7.481-3.381-11-6v-2c1.969-1.727 1.969-1.727 4.5-3.625l2.531-1.914z"/><path fill="#495458" d="M272 329h3l1 5a556 556 0 0 1-6.25 4.063l-1.777 1.181c-4.43 2.813-4.43 2.813-7.395 2.502L259 341c.156-1.77.156-1.77 1-4 2.469-1.887 2.469-1.887 5.5-3.687 5.494-3.307 5.494-3.307 6.5-4.313"/><path fill="#75afa8" d="m382 440.688 3 .312c2 3 2 3 1.75 5.563C386 449 386 449 384 451c-3.297-.33-4.623-.623-7-3-.25-2.5-.25-2.5 0-5 2-2 2-2 5-2.312"/><path fill="#93d6cd" d="m610 577 2 1-1 4 3 2a640 640 0 0 1-3.875 3.5l-2.18 1.969C606 591 606 591 604 591l-3-5z"/><path fill="#798e8c" d="m418 435 3.813.375 2.144.21C426 436 426 436 429 438l-7 9c-3.161-3.161-3.388-3.556-3.687-7.687l-.2-2.45z"/><path fill="#5a5e61" d="m451 341 4 1c-.568 5.54-2.629 10.037-5 15l-4-1c.568-5.54 2.629-10.037 5-15"/><path fill="#4e5356" d="m444 337 4 1c-.604 3.85-1.768 6.861-3.562 10.313l-1.38 2.675L442 353l-4-1c.604-3.85 1.768-6.861 3.563-10.312l1.378-2.676z"/><path fill="#73aea7" d="M500.938 392.813C504 393 504 393 506 395c.25 2.5.25 2.5 0 5-2 2-2 2-4.437 2.313-2.563-.313-2.563-.313-4.438-1.5C496 399 496 399 496.25 396.375c1.052-3.33 1.052-3.33 4.688-3.562"/><path fill="#4f5556" d="M420 393c3.283 1.49 5.93 3.386 8.75 5.625l2.422 1.914L433 402l-1 4c-4.065-1.372-6.674-3.22-9.812-6.125l-2.395-2.195L418 396z"/><path fill="#65a9a6" d="M259.063 304.25C261 305 261 305 263 307c-.568 5.568-.568 5.568-2 7-2.437.188-2.437.188-5 0-2-2-2-2-2.312-5l.312-3c3-2 3-2 5.063-1.75"/><path fill="#495358" d="M311 273c3.125.375 3.125.375 6 1 1.328 5.434 1.328 5.434-.125 7.938C315 283 315 283 312.375 282.75 310 282 310 282 309 281c-.187-2.937-.187-2.937 0-6z"/><path fill="#66ada9" d="m376 233-1 13c-7.031-4.395-7.031-4.395-9-6v-3q1.935-1.007 3.875-2l2.18-1.125C374 233 374 233 376 233"/><path fill="#edeae1" d="M485.5 406.75c2.5.25 2.5.25 4.5 2.25.188 3.063.188 3.063 0 6-1 1-1 1-3.937 1.188C483 416 483 416 481 414c-.25-2.5-.25-2.5 0-5 2-2 2-2 4.5-2.25"/><path fill="#5ca8a0" d="m443 364 15 1v5c-5.152.09-9.92-.153-15-1z"/><path fill="#495458" d="M381 294q-.716 2.188-1.437 4.375l-.81 2.46C378 303 378 303 377 305h-2c-1.508-1.969-1.508-1.969-3.125-4.5l-1.633-2.531L369 296c4.12-1.292 7.668-2.263 12-2"/><path fill="#67aaa6" d="M471.5 463.75c2.5.25 2.5.25 4.5 2.25.25 2.5.25 2.5 0 5-2 2-2 2-4.5 2.25C469 473 469 473 467 471c-.25-2.5-.25-2.5 0-5 2-2 2-2 4.5-2.25"/><path fill="#5fa3a2" d="M274.5 263.75c2.5.25 2.5.25 4.5 2.25.25 2.5.25 2.5 0 5-2 2-2 2-4.5 2.25C272 273 272 273 270 271c-.25-2.5-.25-2.5 0-5 2-2 2-2 4.5-2.25"/><path fill="#85b3ac" d="M469 434.875c3 .125 3 .125 4 1.125.188 2.938.188 2.938 0 6l-2 2c-3.297-.33-4.623-.623-7-3 .725-5.947.725-5.947 5-6.125"/><path fill="#66a69d" d="M494.938 370.813C498 371 498 371 500 373c-.556 4.556-.556 4.556-2 6-2.937.188-2.937.188-6 0l-2-2c.722-5.918.722-5.918 4.938-6.187"/><path fill="#555e5f" d="M407 449c4.274 1.583 6.265 4.506 9 8l-11 3c.875-8.75.875-8.75 2-11"/><path fill="#4d5455" d="M486 404c2.673.281 4.553.707 6.813 2.188 1.785 2.724 1.57 4.618 1.187 7.812-1.187 2.875-1.187 2.875-3 5-2.687.313-2.687.313-5 0l-1-2 4-2c.25-2.75.25-2.75 0-6-2-2.375-2-2.375-4-4z"/><path fill="#6bafaa" d="M292 291c2.875-.125 2.875-.125 6 0l2 2c-.33 3.297-.623 4.623-3 7-4.556-.556-4.556-.556-6-2q.43-3.51 1-7"/><path fill="#cddfdf" d="M165 190c2.625.375 2.625.375 5 1q.57 3.49 1 7c-1 1-1 1-3.937 1.188C164 199 164 199 162 197c.33-3.297.623-4.623 3-7"/><path fill="#8dbfbd" d="M163 166q3.51.43 7 1c.125 2.875.125 2.875 0 6l-2 2c-3.297-.33-4.623-.623-7-3 .556-4.556.556-4.556 2-6"/><path fill="#6baca9" d="M518.688 416.313 521 417c.625 2.313.625 2.313 1 5l-2 3c-3.062.25-3.062.25-6 0-1-1-1-1-1.25-3.375.25-2.625.25-2.625 1.438-4.5C516 416 516 416 518.688 416.313"/><path fill="#78b3af" d="m422.5 349.688 2.5.312c2 3 2 3 1.625 5.688L426 358c-2.312.625-2.312.625-5 1l-3-2c-.312-2.5-.312-2.5 0-5 2-2 2-2 4.5-2.312"/><path fill="#b8d3d2" d="M178 226c3.257.418 4.634.634 7 3-.556 4.556-.556 4.556-2 6-2.437.25-2.437.25-5 0-2-3-2-3-1.687-5.625C177 227 177 227 178 226"/><path fill="#4b5358" d="M367 346.875c3 .125 3 .125 4 1.125.188 2.938.188 2.938 0 6l-2 2c-4.556-.556-4.556-.556-6-2-.125-3-.125-3 0-6 1-1 1-1 4-1.125"/><path fill="#8cbfbe" d="M319.438 293.813C322 294 322 294 324 296c.125 3.125.125 3.125 0 6-2.875.625-2.875.625-6 1-2-2-2-2-2.187-5.062.246-3.866.246-3.866 3.625-4.125"/><path fill="#77b5af" d="m461 312 3.875-.187 2.18-.106L469 312c2 3 2 3 2 7l-7 1c-3-5.75-3-5.75-3-8"/><path fill="#454f54" d="M398 290c3.125.375 3.125.375 6 1 .125 2.875.125 2.875 0 6l-2 2c-4.556-.556-4.556-.556-6-2-.187-2.437-.187-2.437 0-5z"/><path fill="#c4dad9" d="M214 296c1 1 1 1 1.125 3.5C215 302 215 302 214 303c-2.937.188-2.937.188-6 0l-2-2c.25-2.562.25-2.562 1-5 2.684-1.342 4.153-.73 7 0"/><path fill="#a5c8c6" d="M240.438 225.813C243 226 243 226 245 228c-.556 4.556-.556 4.556-2 6-2.437.188-2.437.188-5 0l-2-2c.72-5.902.72-5.902 4.438-6.187"/><path fill="#4f5b5b" d="m465 408 4 2c-3.381 4.136-6.666 7.813-11 11l-2-4 1.715-1.46c.733-.633 1.467-1.264 2.223-1.915l2.214-1.898C464 410 464 410 465 408"/><path fill="#519996" d="M291.438 240.813C294 241 294 241 296 243c-.556 4.556-.556 4.556-2 6-2.437.188-2.437.188-5 0l-2-2c.72-5.902.72-5.902 4.438-6.187"/><path fill="#596161" d="M436 455c-.37 2.626-.69 3.736-2.742 5.484l-2.133 1.266-2.117 1.297C427 464 427 464 424 464c0-2.187 0-2.187 1-5 6.48-5.507 6.48-5.507 11-4"/><path fill="#4f5658" d="M429 467h4v14h-4z"/><path fill="#4c7477" d="M543 540c1.563 1.188 1.563 1.188 3 3-.086 3.344-.783 4.74-2.937 7.313C541 552 541 552 539 552c-.229-3.033-.365-5.975 0-9 2-2.062 2-2.062 4-3"/><path fill="#7eb8ae" d="M439 466c2.625.375 2.625.375 5 1 .625 2.375.625 2.375 1 5-2 2-2 2-4.562 2.188C438 474 438 474 437 473c-.187-2.437-.187-2.437 0-5z"/><path fill="#515658" d="M374 410c-.37 7.385-.37 7.385-3.562 10.5L368 422l-3-4 3-2c.364-1.66.7-3.327 1-5 2-1 2-1 5-1"/><path fill="#489395" d="M297.438 388.813C300 389 300 389 302 391c-.375 2.625-.375 2.625-1 5-2.375.625-2.375.625-5 1-2-2-2-2-2.187-4.562.252-3.278.347-3.373 3.625-3.625"/><path fill="#f1f4f5" d="m758.066 753.902 2.496.035 2.504.028L765 754a324 324 0 0 1-2.75 3.375l-1.547 1.898c-1.785 1.81-3.382 2.728-5.703 3.727-.098-6.152-.098-6.152 0-8 1-1 1-1 3.066-1.098"/><path fill="#444d50" d="M364 386c2.625.375 2.625.375 5 1 .625 2.375.625 2.375 1 5l-2 2c-2.625-.375-2.625-.375-5-1-.625-2.375-.625-2.375-1-5z"/><path fill="#5c6869" d="M446 373c2.625.375 2.625.375 5 1 .625 2.375.625 2.375 1 5l-2 2c-2.625-.375-2.625-.375-5-1-.625-2.375-.625-2.375-1-5z"/><path fill="#616969" d="M427 328c2.625.375 2.625.375 5 1 .625 2.375.625 2.375 1 5l-2 2c-2.625-.375-2.625-.375-5-1-.625-2.375-.625-2.375-1-5z"/><path fill="#454849" d="M386 415c2.703-.22 4.44-.329 6.813 1.063 1.834 2.993 1.498 5.515 1.187 8.937-2 2-2 2-4.625 2.125L387 427l1.5-1.187c1.956-2.364 1.742-3.827 1.5-6.813l-5-2z"/><path fill="#4d585c" d="M379 315c2.625.375 2.625.375 5 1 .625 1.813.625 1.813 1 4l-2 3-5-1c-.625-2.375-.625-2.375-1-5z"/><path fill="#e0e3de" d="M492 439h3q.506 3.093 1 6.188l.563 3.48c.372 2.836.523 5.48.437 8.332l-1-3h-2v2l-2-1z"/><path fill="#6fa09e" d="M431 383c2.625.375 2.625.375 5 1 .688 1.813.688 1.813 1 4-1.187 1.813-1.187 1.813-3 3-2.187-.312-2.187-.312-4-1-.625-2.375-.625-2.375-1-5z"/><path fill="#70afa8" d="M475.063 358.938 478 359c.625 2.375.625 2.375 1 5-2 2-2 2-4.562 2.188C472 366 472 366 471 365c-.125-2.5-.125-2.5 0-5 1-1 1-1 4.063-1.062"/><path fill="#63adaa" d="M362 325q3.012.43 6 1c.125 2.375.125 2.375 0 5l-2 2c-2.625-.375-2.625-.375-5-1-.043-2-.04-4 0-6z"/><path fill="#6eafa8" d="M407.063 424.938 410 425c.625 2.375.625 2.375 1 5l-2 2c-2.625-.375-2.625-.375-5-1a88 88 0 0 1-1-5c1-1 1-1 4.063-1.062"/><path fill="#555a5c" d="M435 490c2.125.375 2.125.375 4 1 .625 2.375.625 2.375 1 5l-2 2c-2.625-.375-2.625-.375-5-1-.125-2.375-.125-2.375 0-5z"/><path fill="#6dafa7" d="M444.5 395.875C447 396 447 396 448 397c.125 2.5.125 2.5 0 5-1 1-1 1-3.5 1.125C442 403 442 403 441 402c-.125-2.5-.125-2.5 0-5 1-1 1-1 3.5-1.125"/><path fill="#576162" d="M510 439h6v6c-2.375.625-2.375.625-5 1l-2-2c.375-2.625.375-2.625 1-5"/><path fill="#66b3a9" d="M697 717c-1.6 4.159-4.649 6.767-7.875 9.688l-1.605 1.51c-4.834 4.42-4.834 4.42-8.52 4.802l2.145-2.137a592 592 0 0 0 5.68-5.758l2.862-2.918 1.471-1.521C694.774 717 694.774 717 697 717"/><path fill="#81b1af" d="M432 442a100 100 0 0 1 5 0c1 1 1 1 1.063 4.063L438 449c-2.375.188-2.375.188-5 0-2-3-2-3-1.625-5.187z"/><path fill="#eef9f5" d="M306 361c5.92 1.76 11.416 4.397 17 7l-2 3-16-8z"/><path fill="#60686b" d="M479 453c2.125.375 2.125.375 4 1a88 88 0 0 1 1 5c-1 1-1 1-3.562 1.063L478 460c-.625-2.375-.625-2.375-1-5z"/><path fill="#4d595b" d="M497.563 421.938 500 422c.625 2.375.625 2.375 1 5l-2 2c-2.125-.375-2.125-.375-4-1a88 88 0 0 1-1-5c1-1 1-1 3.563-1.062"/><path fill="#e7e3da" d="M386 418q2.514.428 5 1v5c-2.375.625-2.375.625-5 1l-2-2c.536-3.536.536-3.536 2-5"/><path fill="#565c5e" d="M397 406c2.125.375 2.125.375 4 1a88 88 0 0 1 1 5c-1 1-1 1-3.562 1.063L396 413c-.625-2.375-.625-2.375-1-5z"/><path fill="#c1eef3" d="m340 304 8 1c-.25 2.875-.25 2.875-1 6l-4 2z"/><path fill="#ebf2f1" d="M736 725c1.108 3.325.845 5.622 0 9h-8q1.436-1.688 2.875-3.375l1.617-1.898A76 76 0 0 1 736 725"/><path fill="#73aba5" d="M470.563 419.938 473 420a88 88 0 0 1 1 5c-1 1-1 1-3.562 1.063L468 426a88 88 0 0 1-1-5c1-1 1-1 3.563-1.062"/><path fill="#465258" d="M656.875 684.625 659 685c-3.06 3.935-5.491 6.681-10 9l-1-3c5.094-5.882 5.094-5.882 8.875-6.375"/><path fill="#46494c" d="M407 380h2c2.018 2.906 3.355 5.517 4 9-2.375-.312-2.375-.312-5-1-2-3-2-3-1.625-5.687z"/><path fill="#4d585f" d="M795 801h2c4 4.47 4 4.47 4 7a125 125 0 0 1-6 4l-1-2q.975-2.013 2-4v-3l-2-1z"/><path fill="#414c4d" d="M407 449c4.274 1.583 6.265 4.506 9 8-3.312.368-4.606.298-7.312-1.75C407 453 407 453 407 449"/><path fill="#64807e" d="m425 437 4 1a1271 1271 0 0 1-3.437 4.5l-1.934 2.531L422 447h-1c-.412-3.603-.154-4.784 2-7.812z"/><path fill="#626968" d="m488 403-2 2 1 2-9 1c1.798-5.395 4.902-5.227 10-5"/><path fill="#85b2a9" d="m454 459 5 2-2 4-4-1c0-4 0-4 1-5"/><path fill="#3d4344" d="M355 407c2.063.438 2.063.438 4 1-1.75 5.75-1.75 5.75-4 8-1-1-1-1-1.125-4.5C354 408 354 408 355 407"/><path fill="#68aaa6" d="M421.563 350.938 424 351l-1 2h-2v3h2v2l-5-1a100 100 0 0 1 0-5c1-1 1-1 3.563-1.062"/><path fill="#516468" d="M738 678h1c.08 1.624.14 3.25.188 4.875l.105 2.742L739 688l-3 2c0-3 0-3 1-4v-3.5c0-3.5 0-3.5 1-4.5m-4 3 2 1-3 3-2-1z"/><path fill="#74b3ab" d="m572 544 2 2-1.437 1.75c-1.511 2.176-2.103 3.676-2.563 6.25l-3-3c1.293-2.884 2.66-4.872 5-7"/><path fill="#72b6af" d="m516 453 1 3c-4.821 5.223-4.821 5.223-9 6q1.436-1.688 2.875-3.375l1.617-1.898A76 76 0 0 1 516 453"/><path fill="#566065" d="m349 352 4 2c-.375 1.938-.375 1.938-1 4l-2 1-4-3 3-1z"/><path fill="#60aaa6" d="M292 291h4l-2 8-3-1z"/><path fill="#e5e9eb" d="m763 803 2 1-1.68 1.645-2.195 2.168-2.18 2.144C757 812 757 812 755 815h-2c1.477-3.452 3.438-5.65 6.125-8.25l2.195-2.14z"/><path fill="#5c6061" d="M353 409h1l1 6 3-4 2 7h-6c-1.478-2.957-1.06-5.742-1-9"/><path fill="#646d6e" d="m362 388 3 2c2.188.625 2.188.625 4 1l1-3-1 5c-2.375.625-2.375.625-5 1l-2-2z"/><path fill="#8fc0b9" d="M451 365h7v5h-8l1.938-.875C454 368 454 368 455 366z"/><path fill="#5ea19d" d="M291.563 240.938 294 241l-2 2-1 3-1 3-3-2c1.073-5.977 1.073-5.977 4.563-6.062"/><path fill="#525758" d="M367 403v1h-7l1 4-2 1-4-3c3.76-3.76 6.973-3.251 12-3"/><path fill="#656a6c" d="m416 373 5 2v3l-9-1 4-1z"/><path fill="#55a3a2" d="M368 326v5l-4 1v-4l-2-1c3-1 3-1 6-1"/><path fill="#5fa99e" d="m834 765 1 4c-2.312 2.063-2.312 2.063-5 4l-3-1z"/><path fill="#508587" d="M543 540c1.563 1.188 1.563 1.188 3 3-.125 2.563-.125 2.563-1 5l-3 2 .563-2.25c.433-2.724.178-4.158-.563-6.75z"/><path fill="#414445" d="m493 414-2 5h-5l-1-2c4.625-3 4.625-3 8-3"/><path fill="#94c5c1" d="m321 254 1 2h13v1l-15 1z"/><path fill="#39454d" d="M773 828c.75 1.75.75 1.75 1 4-1.812 2.25-1.812 2.25-4 4h-2c.542-3.796 2.201-5.472 5-8"/><path fill="#e4e9de" d="m454 455 7 4 1-3 1 2c-1 2-1 2-2.812 2.813C458 461 458 461 455.75 459.75L454 458z"/><path fill="#414e53" d="M337 346h3l2 5h-6z"/><path fill="#596264" d="m433 330-1 5-5 1c0-2 0-2 1.875-4.125C431 330 431 330 433 330"/><path fill="#757b80" d="m307 329 4 1v14h-1l-.148-2.59-.227-3.348c-.07-1.102-.14-2.204-.21-3.34-.138-.898-.274-1.796-.415-2.722l-2-1z"/><path fill="#5ea3a0" d="m652 719 3 1 1 3-3 2-3-4z"/><path fill="#81d1c5" d="m610 577 2 1-1 4 3 2c-4 0-4 0-7-2 1.875-3.875 1.875-3.875 3-5"/><path fill="#576161" d="m459 414 2 3-2 4-3-2c1.875-3.875 1.875-3.875 3-5"/><path fill="#86b7b0" d="m407 342 2 1c-1 2-1 2-3 4-2.754.37-5.204.183-8 0v-1h6l1-3z"/><path fill="#4d575c" d="M845 768h3v2l3 1v3c-2.622-1.049-3.794-1.65-5.25-4.125z"/><path fill="#49565a" d="M644 688c.688 1.813.688 1.813 1 4-1.437 1.75-1.437 1.75-3 3l-3-1z"/><path fill="#57928f" d="M693 681c1.938.688 1.938.688 4 2 .75 2.625.75 2.625 1 5l-6-5z"/><path fill="#393f43" d="M670 633h5l-4 5-3-1z"/><path fill="#70b2ac" d="m616 603 1 3-6 5c0-3 0-3 2.5-5.687z"/><path fill="#636d71" d="m378 316 2 1v5l3 1-5-1a88 88 0 0 1-1-5z"/><path fill="#70a3a3" d="m650 649 4 3c-1.75 3.875-1.75 3.875-4 5z"/><path fill="#d5f6f9" d="m340 304 8 1-1 6-.687-1.875c-1.692-2.74-3.305-3.175-6.313-4.125z"/><path fill="#5ca49e" d="m245 269 1 3-5 4c.564-3.27 1.5-4.826 4-7m-5 7 1 2-2-1z"/><path fill="#6fb5ac" d="m658 713 3 1-6 5-2-1z"/><path fill="#39454b" d="m728 693 2 1c-.812 1.938-.812 1.938-2 4l-3 1c.573-2.867.861-3.861 3-6"/><path fill="#f6f2eb" d="M473 317h2l1 4-3 2-2-3z"/></svg>